<svg width="0" height="0" class="hidden">
  <symbol xmlns="http://www.w3.org/2000/svg" viewBox="0 0 512 512" id="right-arrow">
    <path d="M506.134 241.843l-.018-.019-104.504-104c-7.829-7.791-20.492-7.762-28.285.068-7.792 7.829-7.762 20.492.067 28.284L443.558 236H20c-11.046 0-20 8.954-20 20s8.954 20 20 20h423.557l-70.162 69.824c-7.829 7.792-7.859 20.455-.067 28.284 7.793 7.831 20.457 7.858 28.285.068l104.504-104 .018-.019c7.833-7.818 7.808-20.522-.001-28.314z" ></path>
  </symbol>
  <symbol xmlns="http://www.w3.org/2000/svg" viewBox="0 0 41 41" id="telega">
    <path d="M34.996 6.004A20.366 20.366 0 0020.5 0 20.366 20.366 0 006.004 6.004 20.366 20.366 0 000 20.5a20.366 20.366 0 006.004 14.496A20.366 20.366 0 0020.5 41a20.366 20.366 0 0014.496-6.004A20.366 20.366 0 0041 20.5a20.366 20.366 0 00-6.004-14.496zM20.5 39.705C9.91 39.705 1.295 31.09 1.295 20.5 1.295 9.91 9.91 1.295 20.5 1.295c10.59 0 19.205 8.615 19.205 19.205 0 10.59-8.615 19.205-19.205 19.205z" ></path>
    <path d="M32.11 7.899a.647.647 0 00-.686-.058L6.392 20.788a.647.647 0 00.008 1.154l6.547 3.274v6.487a.649.649 0 00.962.584l7.491-4.162 5.734 2.457a.649.649 0 00.907-.46l1.45-7.253a.647.647 0 00-1.27-.255l-1.294 6.471-5.309-2.275a.648.648 0 00-.57.03l-6.806 3.78v-5.804a.648.648 0 00-.358-.58l-5.767-2.883L30.822 9.61l-1.97 9.851a.647.647 0 001.27.254l2.234-11.172a.647.647 0 00-.245-.644z" ></path>
    <path d="M27.913 13.193a.647.647 0 00-.847-.15L15.845 19.95a.647.647 0 00-.308.551v6.905a.647.647 0 001.226.29l2.543-5.085 8.557-8.557a.648.648 0 00.05-.86zm-9.597 8.576a.645.645 0 00-.121.168l-1.363 2.726v-3.801l6.216-3.826-4.732 4.733z" ></path>
  </symbol>
  <symbol xmlns="http://www.w3.org/2000/svg" viewBox="0 0 40 40" id="wp">
    <path d="M20 0C8.972 0 0 8.972 0 20a19.92 19.92 0 003.028 10.586C2.238 33.354.812 38.59.796 38.644c-.074.27.006.56.208.755a.773.773 0 00.76.182l7.928-2.439A19.95 19.95 0 0020 40c11.029 0 20-8.971 20-20C40 8.972 31.029 0 20 0zm0 38.462c-3.476 0-6.862-.972-9.793-2.809a.769.769 0 00-.635-.083L2.65 37.7a762.004 762.004 0 011.952-7.022.772.772 0 00-.094-.632A18.39 18.39 0 011.538 20C1.538 9.82 9.821 1.538 20 1.538c10.18 0 18.462 8.283 18.462 18.462 0 10.18-8.283 18.462-18.462 18.462z" ></path>
    <path d="M33.065 24.712c-1.42-.788-2.629-1.579-3.511-2.156-.674-.44-1.16-.758-1.518-.937-.998-.497-1.754-.146-2.041.145a.76.76 0 00-.097.117c-1.036 1.554-2.389 3.041-2.785 3.121-.458-.071-2.6-1.289-4.73-3.062-2.173-1.812-3.54-3.546-3.741-4.728 1.394-1.435 1.896-2.338 1.896-3.366 0-1.06-2.47-5.481-2.917-5.928-.449-.448-1.459-.518-3.003-.21a.777.777 0 00-.393.21c-.186.187-4.56 4.646-2.482 10.05 2.282 5.932 8.138 12.827 15.604 13.947.848.127 1.644.19 2.388.19 4.393 0 6.985-2.21 7.715-6.594a.766.766 0 00-.385-.799zm-9.49 5.681C15.68 29.21 10.707 21.387 9.18 17.416c-1.515-3.938 1.28-7.45 1.981-8.244.57-.097 1.171-.137 1.422-.098.524.728 2.338 4.155 2.418 4.772 0 .404-.132.966-1.698 2.533a.766.766 0 00-.225.544c0 4.028 8.495 9.616 10 9.616 1.308 0 3.014-2.2 3.986-3.633a.73.73 0 01.286.09c.276.139.756.452 1.363.849a60.97 60.97 0 003.123 1.94c-.57 2.746-2.166 5.523-8.26 4.608z" ></path>
  </symbol>
  <symbol xmlns="http://www.w3.org/2000/svg" viewBox="0 0 40 42" id="viber">
    <path d="M24 0h-8C7.62 0 .804 6.815.804 15.193v7.206a15.222 15.222 0 009.598 14.13V41.2a.799.799 0 001.336.593l4.638-4.2H24c8.38 0 15.197-6.816 15.197-15.194v-7.206C39.196 6.815 32.379 0 24 0zm13.596 22.4c0 7.495-6.099 13.592-13.596 13.592h-7.932a.798.798 0 00-.537.208L12 39.397v-3.423a.798.798 0 00-.533-.753 13.622 13.622 0 01-9.065-12.822v-7.206C2.403 7.698 8.503 1.6 16 1.6h8c7.497 0 13.596 6.098 13.596 13.593v7.206z"></path>
    <path d="M30.57 24.39l-4.916-3.194a2.395 2.395 0 00-3.319.704l-.231.355c-2.128-.703-4.473-1.6-5.878-5.666l.581-.506a2.403 2.403 0 00.236-3.386l-3.846-4.424a.8.8 0 00-1.129-.079l-2.414 2.1c-2.118 1.84-1.129 4.564-.803 5.459.014.04.032.078.052.116.084.15 2.09 3.729 5.328 7.027 3.252 3.312 9.121 6.37 9.301 6.46a4.004 4.004 0 005.532-1.176l1.742-2.683a.802.802 0 00-.236-1.108zm-2.848 2.918c-.72 1.11-2.21 1.425-3.386.667-.058-.03-5.89-3.067-8.963-6.199-2.873-2.926-4.781-6.178-5.041-6.631-.633-1.777-.522-2.868.371-3.644l1.812-1.574 3.32 3.82a.79.79 0 01-.076 1.128l-.982.853a.799.799 0 00-.24.839c1.674 5.437 4.928 6.505 7.303 7.285l.346.114a.797.797 0 00.924-.322l.567-.874a.791.791 0 011.106-.233l4.246 2.758-1.307 2.013zm-5.896-14.313a.8.8 0 10-.438 1.538 3.619 3.619 0 012.476 2.483.8.8 0 001.54-.434 5.23 5.23 0 00-3.578-3.587z" ></path>
    <path d="M27.912 17.771a.8.8 0 00.77-1.017 10.157 10.157 0 00-6.95-6.965.799.799 0 10-.437 1.539 8.546 8.546 0 015.848 5.861.8.8 0 00.77.582z" ></path>
    <path d="M21.388 6.064a.8.8 0 10-.438 1.539c4.766 1.356 8.563 5.162 9.908 9.93a.8.8 0 001.54-.433c-1.495-5.3-5.713-9.528-11.01-11.036z" ></path>
  </symbol>
</svg>