<svg width="275" height="140" viewBox="0 0 275 140" fill="none" xmlns="http://www.w3.org/2000/svg">
<path d="M0 84.2974H31.7488C32.4202 84.2974 32.9646 84.8418 32.9646 85.5133V85.5133C32.9646 86.1847 32.4202 86.7291 31.7488 86.7291H0V84.2974Z" fill="#C4C4C4"/>
<path d="M0 84.2974H31.7488C32.4202 84.2974 32.9646 84.8418 32.9646 85.5133V85.5133C32.9646 86.1847 32.4202 86.7291 31.7488 86.7291H0V84.2974Z" fill="url(#paint0_linear)"/>
<path d="M39.8228 54.6892C39.9995 54.0305 40.6778 53.6353 41.3379 53.8065V53.8065C41.9981 53.9777 42.3901 54.6505 42.2134 55.3093L34.0268 85.8416C33.8501 86.5003 33.1718 86.8955 32.5116 86.7243V86.7243C31.8515 86.553 31.4595 85.8802 31.6361 85.2215L39.8228 54.6892Z" fill="#C4C4C4"/>
<path d="M39.8228 54.6892C39.9995 54.0305 40.6778 53.6353 41.3379 53.8065V53.8065C41.9981 53.9777 42.3901 54.6505 42.2134 55.3093L34.0268 85.8416C33.8501 86.5003 33.1718 86.8955 32.5116 86.7243V86.7243C31.8515 86.553 31.4595 85.8802 31.6361 85.2215L39.8228 54.6892Z" fill="url(#paint1_linear)"/>
<path d="M116.53 83.4869H270.248C270.919 83.4869 271.463 84.0313 271.463 84.7027V84.7027C271.463 85.3742 270.919 85.9186 270.248 85.9186H118.961C117.619 85.9186 116.53 84.8299 116.53 83.4869V83.4869Z" fill="#C4C4C4"/>
<path d="M116.53 83.4869H270.248C270.919 83.4869 271.463 84.0313 271.463 84.7027V84.7027C271.463 85.3742 270.919 85.9186 270.248 85.9186H118.961C117.619 85.9186 116.53 84.8299 116.53 83.4869V83.4869Z" fill="url(#paint2_linear)"/>
<path d="M109.706 56.3231C109.854 55.6573 110.515 55.2343 111.182 55.3783V55.3783C111.849 55.5223 112.269 56.1787 112.12 56.8446L101.578 104.076C101.429 104.742 100.768 105.165 100.101 105.021V105.021C99.4343 104.877 99.0142 104.22 99.1629 103.555L109.706 56.3231Z" fill="#C4C4C4"/>
<path d="M109.706 56.3231C109.854 55.6573 110.515 55.2343 111.182 55.3783V55.3783C111.849 55.5223 112.269 56.1787 112.12 56.8446L101.578 104.076C101.429 104.742 100.768 105.165 100.101 105.021V105.021C99.4343 104.877 99.0142 104.22 99.1629 103.555L109.706 56.3231Z" fill="url(#paint3_linear)"/>
<path d="M39.8786 55.3114C39.7013 54.6529 40.0925 53.9796 40.7525 53.8077V53.8077C41.4125 53.6358 42.0912 54.0303 42.2686 54.6888L55.5523 104.017C55.7296 104.676 55.3383 105.349 54.6784 105.521V105.521C54.0184 105.693 53.3397 105.299 53.1623 104.64L39.8786 55.3114Z" fill="#C4C4C4"/>
<path d="M39.8786 55.3114C39.7013 54.6529 40.0925 53.9796 40.7525 53.8077V53.8077C41.4125 53.6358 42.0912 54.0303 42.2686 54.6888L55.5523 104.017C55.7296 104.676 55.3383 105.349 54.6784 105.521V105.521C54.0184 105.693 53.3397 105.299 53.1623 104.64L39.8786 55.3114Z" fill="url(#paint4_linear)"/>
<path d="M110.04 56.842C109.892 56.176 110.313 55.52 110.98 55.3768V55.3768C111.647 55.2336 112.307 55.6575 112.455 56.3235L118.647 84.227C118.794 84.8931 118.373 85.549 117.706 85.6922V85.6922C117.039 85.8354 116.379 85.4115 116.231 84.7455L110.04 56.842Z" fill="#C4C4C4"/>
<path d="M110.04 56.842C109.892 56.176 110.313 55.52 110.98 55.3768V55.3768C111.647 55.2336 112.307 55.6575 112.455 56.3235L118.647 84.227C118.794 84.8931 118.373 85.549 117.706 85.6922V85.6922C117.039 85.8354 116.379 85.4115 116.231 84.7455L110.04 56.842Z" fill="url(#paint5_linear)"/>
<path d="M69.9156 1.21927C70.0264 0.545887 70.6625 0.0869329 71.3365 0.19417V0.19417C72.0105 0.301407 72.467 0.934227 72.3562 1.60761L55.3845 104.789C55.2737 105.462 54.6376 105.921 53.9636 105.814V105.814C53.2897 105.707 52.8331 105.074 52.9439 104.4L69.9156 1.21927Z" fill="#C4C4C4"/>
<path d="M69.9156 1.21927C70.0264 0.545887 70.6625 0.0869329 71.3365 0.19417V0.19417C72.0105 0.301407 72.467 0.934227 72.3562 1.60761L55.3845 104.789C55.2737 105.462 54.6376 105.921 53.9636 105.814V105.814C53.2897 105.707 52.8331 105.074 52.9439 104.4L69.9156 1.21927Z" fill="url(#paint6_linear)"/>
<path d="M69.9521 1.81757L72.4192 1.65862L81.5404 138.608C81.5858 139.289 81.0703 139.877 80.389 139.921V139.921C79.7078 139.964 79.1187 139.448 79.0733 138.767L69.9521 1.81757Z" fill="#C4C4C4"/>
<path d="M69.9521 1.81757L72.4192 1.65862L81.5404 138.608C81.5858 139.289 81.0703 139.877 80.389 139.921V139.921C79.7078 139.964 79.1187 139.448 79.0733 138.767L69.9521 1.81757Z" fill="url(#paint7_linear)"/>
<path d="M90.9849 74.1645C91.1094 73.4936 91.7548 73.0474 92.4264 73.168V73.168C93.098 73.2885 93.5416 73.9301 93.4171 74.601L81.5472 138.582V138.582C80.204 138.341 79.3168 137.058 79.5658 135.716L90.9849 74.1645Z" fill="#C4C4C4"/>
<path d="M90.9849 74.1645C91.1094 73.4936 91.7548 73.0474 92.4264 73.168V73.168C93.098 73.2885 93.5416 73.9301 93.4171 74.601L81.5472 138.582V138.582C80.204 138.341 79.3168 137.058 79.5658 135.716L90.9849 74.1645Z" fill="url(#paint8_linear)"/>
<path d="M90.976 74.7684C90.7974 74.1102 91.1873 73.4363 91.847 73.2632V73.2632C92.5066 73.09 93.1861 73.4832 93.3647 74.1414L101.486 104.073C101.665 104.731 101.275 105.405 100.615 105.578V105.578C99.9556 105.751 99.2761 105.358 99.0975 104.7L90.976 74.7684Z" fill="#C4C4C4"/>
<path d="M90.976 74.7684C90.7974 74.1102 91.1873 73.4363 91.847 73.2632V73.2632C92.5066 73.09 93.1861 73.4832 93.3647 74.1414L101.486 104.073C101.665 104.731 101.275 105.405 100.615 105.578V105.578C99.9556 105.751 99.2761 105.358 99.0975 104.7L90.976 74.7684Z" fill="url(#paint9_linear)"/>
<path d="M140.991 35.5771C140.991 37.3187 140.69 38.8486 140.088 40.167C139.486 41.4772 138.623 42.4863 137.5 43.1943C136.385 43.8942 135.099 44.2441 133.643 44.2441C132.202 44.2441 130.916 43.8942 129.785 43.1943C128.662 42.4863 127.791 41.4813 127.173 40.1792C126.562 38.8771 126.253 37.3757 126.245 35.6748V34.6738C126.245 32.9404 126.55 31.4105 127.161 30.084C127.779 28.7575 128.646 27.7443 129.761 27.0444C130.884 26.3364 132.17 25.9824 133.618 25.9824C135.067 25.9824 136.348 26.3324 137.463 27.0322C138.586 27.724 139.453 28.7249 140.063 30.0352C140.674 31.3372 140.983 32.855 140.991 34.5884V35.5771ZM137.903 34.6494C137.903 32.68 137.528 31.1704 136.78 30.1206C136.039 29.0708 134.985 28.5459 133.618 28.5459C132.284 28.5459 131.238 29.0708 130.481 30.1206C129.732 31.1623 129.35 32.6393 129.333 34.5518V35.5771C129.333 37.5303 129.712 39.0399 130.469 40.106C131.234 41.172 132.292 41.7051 133.643 41.7051C135.01 41.7051 136.06 41.1842 136.792 40.1426C137.533 39.1009 137.903 37.5791 137.903 35.5771V34.6494ZM157.068 26.2266V38.104C157.068 39.992 156.462 41.4894 155.249 42.5962C154.045 43.6948 152.437 44.2441 150.427 44.2441C148.393 44.2441 146.777 43.703 145.581 42.6206C144.385 41.5301 143.787 40.0205 143.787 38.0918V26.2266H146.863V38.1162C146.863 39.3044 147.164 40.2118 147.766 40.8384C148.368 41.465 149.255 41.7783 150.427 41.7783C152.804 41.7783 153.992 40.5251 153.992 38.0186V26.2266H157.068ZM146.082 23.541C146.082 23.1341 146.216 22.7923 146.484 22.5156C146.761 22.2389 147.139 22.1006 147.62 22.1006C148.1 22.1006 148.478 22.2389 148.755 22.5156C149.032 22.7923 149.17 23.1341 149.17 23.541C149.17 23.9479 149.032 24.2897 148.755 24.5664C148.478 24.8431 148.1 24.9814 147.62 24.9814C147.139 24.9814 146.761 24.8431 146.484 24.5664C146.216 24.2897 146.082 23.9479 146.082 23.541ZM151.66 23.5532C151.66 23.1463 151.794 22.8045 152.063 22.5278C152.34 22.2511 152.718 22.1128 153.198 22.1128C153.678 22.1128 154.057 22.2511 154.333 22.5278C154.61 22.8045 154.749 23.1463 154.749 23.5532C154.749 23.9601 154.61 24.3019 154.333 24.5786C154.057 24.8553 153.678 24.9937 153.198 24.9937C152.718 24.9937 152.34 24.8553 152.063 24.5786C151.794 24.3019 151.66 23.9601 151.66 23.5532ZM140.369 67.2139C140.19 69.11 139.49 70.5911 138.269 71.6572C137.048 72.7152 135.425 73.2441 133.398 73.2441C131.982 73.2441 130.733 72.9105 129.651 72.2432C128.577 71.5677 127.747 70.6115 127.161 69.3745C126.575 68.1375 126.27 66.7012 126.245 65.0654V63.4053C126.245 61.7288 126.542 60.2518 127.136 58.9741C127.73 57.6965 128.581 56.7118 129.688 56.02C130.802 55.3283 132.088 54.9824 133.545 54.9824C135.506 54.9824 137.085 55.5155 138.281 56.5815C139.478 57.6476 140.173 59.1532 140.369 61.0981H137.292C137.146 59.8205 136.772 58.9009 136.169 58.3394C135.575 57.7697 134.701 57.4849 133.545 57.4849C132.202 57.4849 131.169 57.9772 130.444 58.9619C129.728 59.9385 129.362 61.3748 129.346 63.271V64.8457C129.346 66.7663 129.688 68.2311 130.371 69.2402C131.063 70.2493 132.072 70.7539 133.398 70.7539C134.611 70.7539 135.522 70.4813 136.133 69.936C136.743 69.3908 137.13 68.4834 137.292 67.2139H140.369ZM142.297 66.2739C142.297 64.98 142.554 63.8162 143.066 62.7827C143.579 61.741 144.299 60.9435 145.227 60.3901C146.155 59.8286 147.221 59.5479 148.425 59.5479C150.208 59.5479 151.652 60.1216 152.759 61.269C153.874 62.4165 154.476 63.9383 154.565 65.8345L154.578 66.5303C154.578 67.8324 154.325 68.9961 153.821 70.0215C153.324 71.0469 152.608 71.8403 151.672 72.4019C150.745 72.9634 149.67 73.2441 148.45 73.2441C146.586 73.2441 145.093 72.6257 143.97 71.3887C142.855 70.1436 142.297 68.4875 142.297 66.4204V66.2739ZM145.264 66.5303C145.264 67.8893 145.544 68.9554 146.106 69.7285C146.667 70.4935 147.449 70.876 148.45 70.876C149.451 70.876 150.228 70.4854 150.781 69.7041C151.343 68.9229 151.624 67.7795 151.624 66.2739C151.624 64.9393 151.335 63.8813 150.757 63.1001C150.187 62.3188 149.41 61.9282 148.425 61.9282C147.457 61.9282 146.688 62.3148 146.118 63.0879C145.549 63.8529 145.264 65.0003 145.264 66.5303ZM159.875 59.792L159.961 61.1714C160.889 60.089 162.158 59.5479 163.77 59.5479C165.535 59.5479 166.744 60.2233 167.395 61.5742C168.355 60.2233 169.706 59.5479 171.448 59.5479C172.904 59.5479 173.987 59.9507 174.695 60.7563C175.411 61.562 175.777 62.7502 175.793 64.3208V73H172.827V64.4062C172.827 63.568 172.644 62.9536 172.278 62.563C171.912 62.1724 171.305 61.9771 170.459 61.9771C169.784 61.9771 169.23 62.1602 168.799 62.5264C168.376 62.8844 168.079 63.3564 167.908 63.9424L167.92 73H164.954V64.3086C164.913 62.7542 164.119 61.9771 162.573 61.9771C161.385 61.9771 160.543 62.4613 160.046 63.4297V73H157.08V59.792H159.875ZM190.405 66.5303C190.405 68.5729 189.941 70.2046 189.014 71.4253C188.086 72.6379 186.841 73.2441 185.278 73.2441C183.83 73.2441 182.67 72.7681 181.799 71.8159V78.0781H178.833V59.792H181.567L181.689 61.1348C182.56 60.0768 183.744 59.5479 185.242 59.5479C186.853 59.5479 188.114 60.1501 189.026 61.3545C189.945 62.5508 190.405 64.215 190.405 66.3472V66.5303ZM187.451 66.2739C187.451 64.9556 187.187 63.9098 186.658 63.1367C186.137 62.3636 185.388 61.9771 184.412 61.9771C183.199 61.9771 182.328 62.4775 181.799 63.4785V69.3379C182.336 70.3633 183.215 70.876 184.436 70.876C185.38 70.876 186.117 70.4976 186.646 69.7407C187.183 68.9757 187.451 67.8201 187.451 66.2739ZM196.082 73H193.115V54.25H196.082V73ZM202.478 73H199.512V59.792H202.478V73ZM199.329 56.3618C199.329 55.9061 199.471 55.5277 199.756 55.2266C200.049 54.9255 200.464 54.7749 201.001 54.7749C201.538 54.7749 201.953 54.9255 202.246 55.2266C202.539 55.5277 202.686 55.9061 202.686 56.3618C202.686 56.8094 202.539 57.1838 202.246 57.4849C201.953 57.7778 201.538 57.9243 201.001 57.9243C200.464 57.9243 200.049 57.7778 199.756 57.4849C199.471 57.1838 199.329 56.8094 199.329 56.3618ZM218.848 57.7168H213.306V73H210.242V57.7168H204.749V55.2266H218.848V57.7168ZM225.623 73.2441C223.743 73.2441 222.217 72.6541 221.045 71.4741C219.881 70.286 219.299 68.7072 219.299 66.7378V66.3716C219.299 65.0532 219.552 63.8773 220.056 62.8438C220.569 61.8021 221.285 60.9924 222.205 60.4146C223.124 59.8368 224.15 59.5479 225.281 59.5479C227.079 59.5479 228.467 60.1216 229.443 61.269C230.428 62.4165 230.92 64.04 230.92 66.1396V67.3359H222.29C222.38 68.4264 222.742 69.2891 223.376 69.9238C224.019 70.5586 224.825 70.876 225.793 70.876C227.153 70.876 228.259 70.3267 229.114 69.228L230.713 70.7539C230.184 71.5433 229.476 72.1577 228.589 72.5972C227.71 73.0285 226.721 73.2441 225.623 73.2441ZM225.269 61.9282C224.455 61.9282 223.796 62.2131 223.291 62.7827C222.795 63.3524 222.477 64.1458 222.339 65.1631H227.991V64.9434C227.926 63.9505 227.661 63.2018 227.197 62.6973C226.733 62.1846 226.09 61.9282 225.269 61.9282ZM238.66 70.876C239.4 70.876 240.015 70.6603 240.503 70.229C240.991 69.7977 241.252 69.2646 241.284 68.6299H244.08C244.047 69.4518 243.791 70.2209 243.311 70.937C242.83 71.645 242.179 72.2065 241.357 72.6216C240.535 73.0366 239.648 73.2441 238.696 73.2441C236.849 73.2441 235.384 72.646 234.302 71.4497C233.219 70.2534 232.678 68.6014 232.678 66.4937V66.1885C232.678 64.1784 233.215 62.5711 234.29 61.3667C235.364 60.1541 236.829 59.5479 238.684 59.5479C240.255 59.5479 241.532 60.0076 242.517 60.9272C243.51 61.8387 244.031 63.0391 244.08 64.5283H241.284C241.252 63.7715 240.991 63.1489 240.503 62.6606C240.023 62.1724 239.408 61.9282 238.66 61.9282C237.699 61.9282 236.959 62.2782 236.438 62.978C235.917 63.6698 235.653 64.7236 235.645 66.1396V66.6157C235.645 68.048 235.901 69.1182 236.414 69.8262C236.934 70.526 237.683 70.876 238.66 70.876ZM249.243 61.2324C250.212 60.1094 251.436 59.5479 252.917 59.5479C255.733 59.5479 257.161 61.1551 257.202 64.3696V73H254.236V64.4795C254.236 63.568 254.036 62.9251 253.638 62.5508C253.247 62.1683 252.669 61.9771 251.904 61.9771C250.716 61.9771 249.829 62.506 249.243 63.564V73H246.277V54.25H249.243V61.2324Z" fill="#395A95"/>
<defs>
<linearGradient id="paint0_linear" x1="16.4823" y1="84.2974" x2="16.4823" y2="86.7291" gradientUnits="userSpaceOnUse">
<stop stop-color="#1A3E84" stop-opacity="0.81"/>
<stop offset="0.770833" stop-color="#2C96F8"/>
</linearGradient>
<linearGradient id="paint1_linear" x1="41.3379" y1="53.8065" x2="32.7816" y2="86.7943" gradientUnits="userSpaceOnUse">
<stop stop-color="#1A3E84" stop-opacity="0.81"/>
<stop offset="0.770833" stop-color="#2C96F8"/>
</linearGradient>
<linearGradient id="paint2_linear" x1="193.997" y1="83.4869" x2="193.997" y2="85.9186" gradientUnits="userSpaceOnUse">
<stop stop-color="#1A3E84" stop-opacity="0.81"/>
<stop offset="0.770833" stop-color="#2C96F8"/>
</linearGradient>
<linearGradient id="paint3_linear" x1="111.182" y1="55.3783" x2="100.447" y2="105.095" gradientUnits="userSpaceOnUse">
<stop stop-color="#1A3E84" stop-opacity="0.81"/>
<stop offset="0.770833" stop-color="#2C96F8"/>
</linearGradient>
<linearGradient id="paint4_linear" x1="40.7525" y1="53.8077" x2="54.2527" y2="105.632" gradientUnits="userSpaceOnUse">
<stop stop-color="#1A3E84" stop-opacity="0.81"/>
<stop offset="0.770833" stop-color="#2C96F8"/>
</linearGradient>
<linearGradient id="paint5_linear" x1="110.98" y1="55.3768" x2="117.496" y2="85.7372" gradientUnits="userSpaceOnUse">
<stop stop-color="#1A3E84" stop-opacity="0.81"/>
<stop offset="0.770833" stop-color="#2C96F8"/>
</linearGradient>
<linearGradient id="paint6_linear" x1="71.3365" y1="0.19417" x2="54.5167" y2="105.902" gradientUnits="userSpaceOnUse">
<stop stop-color="#1A3E84" stop-opacity="0.81"/>
<stop offset="0.770833" stop-color="#2C96F8"/>
</linearGradient>
<linearGradient id="paint7_linear" x1="71.1856" y1="1.73809" x2="80.0898" y2="139.94" gradientUnits="userSpaceOnUse">
<stop stop-color="#1A3E84" stop-opacity="0.81"/>
<stop offset="0.770833" stop-color="#2C96F8"/>
</linearGradient>
<linearGradient id="paint8_linear" x1="92.4264" y1="73.168" x2="80.7136" y2="138.433" gradientUnits="userSpaceOnUse">
<stop stop-color="#1A3E84" stop-opacity="0.81"/>
<stop offset="0.770833" stop-color="#2C96F8"/>
</linearGradient>
<linearGradient id="paint9_linear" x1="91.847" y1="73.2632" x2="100.347" y2="105.649" gradientUnits="userSpaceOnUse">
<stop stop-color="#1A3E84" stop-opacity="0.81"/>
<stop offset="0.770833" stop-color="#2C96F8"/>
</linearGradient>
</defs>
</svg>
