<svg width="41" height="41" viewBox="0 0 41 41" fill="none" xmlns="http://www.w3.org/2000/svg">
<path d="M34.9957 6.00434C31.1237 2.13232 25.9757 0 20.5 0C15.0243 0 9.87628 2.13232 6.00434 6.00434C2.13232 9.87628 0 15.0243 0 20.5C0 25.9757 2.13232 31.1237 6.00434 34.9957C9.87628 38.8677 15.0243 41 20.5 41C25.9757 41 31.1237 38.8677 34.9957 34.9957C38.8676 31.1236 41 25.9757 41 20.5C41 15.0243 38.8677 9.87628 34.9957 6.00434ZM20.5 39.7053C9.91015 39.7053 1.2947 31.0899 1.2947 20.5C1.2947 9.91015 9.91015 1.2947 20.5 1.2947C31.0899 1.2947 39.7053 9.91015 39.7053 20.5C39.7053 31.0899 31.0899 39.7053 20.5 39.7053Z" fill="white"/>
<path d="M32.1105 7.89866C31.9117 7.74891 31.6447 7.72649 31.4237 7.84084L6.39203 20.7882C6.17566 20.9001 6.0404 21.124 6.04201 21.3676C6.04361 21.6112 6.1819 21.8333 6.39988 21.9423L12.9474 25.2159V31.7027C12.9474 31.8724 13.0051 32.0404 13.122 32.1637C13.2512 32.3001 13.423 32.3684 13.5948 32.3684C13.7031 32.3684 13.8113 32.3414 13.9093 32.2869L21.4001 28.1253L27.1335 30.5825C27.2554 30.6348 27.3904 30.6564 27.521 30.632C27.7896 30.5818 27.9893 30.376 28.0403 30.1218L29.4909 22.8685C29.571 22.4679 29.2646 22.0942 28.856 22.0942C28.5474 22.094 28.2818 22.3118 28.2212 22.6144L26.927 29.0853L21.6182 26.8101C21.4343 26.7313 21.224 26.7421 21.0488 26.8392L14.2422 30.6207V24.8157C14.2422 24.5705 14.1036 24.3465 13.8843 24.2367L8.11747 21.3533L30.822 9.60953L28.8517 19.461C28.7716 19.8616 29.078 20.2353 29.4866 20.2353C29.7951 20.2353 30.0608 20.0174 30.1214 19.7149L32.3558 8.54265C32.4046 8.29873 32.3092 8.04832 32.1105 7.89866Z" fill="white"/>
<path d="M27.9133 13.1934C27.7098 12.9359 27.3456 12.8712 27.066 13.0434L15.8449 19.9487C15.6535 20.0665 15.5369 20.2753 15.5369 20.5V27.4053C15.5368 27.7056 15.7432 27.9664 16.0354 28.0354C16.0851 28.0472 16.135 28.0529 16.1843 28.0529C16.4251 28.0529 16.6517 27.9178 16.7631 27.6949L19.3056 22.6099L27.863 14.0526C28.0951 13.8203 28.1167 13.4511 27.9133 13.1934ZM18.3158 21.7686C18.2667 21.8177 18.2257 21.8746 18.1947 21.9368L16.8316 24.6629V20.8618L23.0485 17.0359L18.3158 21.7686Z" fill="white"/>
</svg>
