<svg width="40" height="42" viewBox="0 0 40 42" fill="none" xmlns="http://www.w3.org/2000/svg">
<path d="M23.9995 0H15.9996C7.62056 0 0.803589 6.81537 0.803589 15.1928V22.3993C0.803589 28.638 4.63719 34.2448 10.4016 36.5283V41.2002C10.4016 41.5169 10.5879 41.8032 10.8775 41.9312C10.9815 41.9776 11.0918 42 11.2014 42C11.3958 42 11.5885 41.9288 11.7381 41.7928L16.3763 37.5921H23.9995C32.3786 37.5921 39.1955 30.7767 39.1955 22.3993V15.1928C39.1955 6.81537 32.3786 0 23.9995 0ZM37.5959 22.3993C37.5959 29.8945 31.4972 35.9924 23.9995 35.9924H16.0676C15.8692 35.9924 15.6781 36.066 15.5309 36.1996L12.0012 39.3965V35.9741C12.0012 35.6349 11.7877 35.3326 11.4678 35.2206C6.04649 33.3034 2.40325 28.1509 2.40325 22.3993V15.1928C2.40325 7.69759 8.50278 1.59966 15.9996 1.59966H23.9995C31.4972 1.59966 37.5959 7.69759 37.5959 15.1928V22.3993Z" fill="white"/>
<path d="M30.5701 24.3893L25.6544 21.1964C25.1169 20.8468 24.477 20.7285 23.8507 20.858C23.2237 20.99 22.6846 21.3603 22.3351 21.9002L22.1039 22.2554C19.9764 21.5523 17.6305 20.6541 16.2259 16.5885L16.8074 16.083C17.8056 15.2152 17.9104 13.6971 17.0426 12.6974L13.197 8.27348C12.9074 7.93995 12.402 7.90556 12.0684 8.1943L9.65373 10.2931C7.53577 12.1343 8.52516 14.8577 8.85069 15.7527C8.86509 15.7927 8.88269 15.8311 8.90348 15.8687C8.98747 16.0191 10.9926 19.5975 14.2312 22.896C17.4825 26.2081 23.3525 29.2667 23.5324 29.3555C24.2027 29.7906 24.9569 29.9993 25.7032 29.9993C27.0133 29.9993 28.2978 29.3571 29.0641 28.1797L30.8061 25.4971C31.046 25.1252 30.9405 24.6301 30.5701 24.3893ZM27.7219 27.3079C27.0013 28.4181 25.512 28.7332 24.3362 27.975C24.2779 27.9446 18.4463 24.9076 15.3725 21.7763C12.4995 18.8497 10.5919 15.5983 10.332 15.1448C9.69852 13.3684 9.81049 12.2766 10.7031 11.5008L12.5147 9.92673L15.8356 13.7467C16.1308 14.0859 16.0964 14.5818 15.7588 14.8753L14.7775 15.7279C14.5383 15.9359 14.4439 16.2646 14.5375 16.5669C16.2108 22.0042 19.4645 23.072 21.84 23.8518L22.1863 23.9662C22.5326 24.083 22.9117 23.9494 23.1101 23.6439L23.6772 22.7704C23.794 22.5897 23.9731 22.4673 24.1811 22.4233C24.3898 22.3785 24.6026 22.4201 24.7834 22.5377L29.0289 25.2947L27.7219 27.3079Z" fill="white"/>
<path d="M21.8256 12.9949C21.4001 12.8725 20.9577 13.1197 20.837 13.5452C20.7162 13.9699 20.9625 14.4122 21.3873 14.533C22.579 14.8721 23.5284 15.8231 23.8643 17.0156C23.9635 17.3676 24.2842 17.5987 24.6338 17.5987C24.7058 17.5987 24.7785 17.5891 24.8513 17.5691C25.276 17.4492 25.524 17.0077 25.404 16.5821C24.9185 14.8593 23.5468 13.4844 21.8256 12.9949Z" fill="white"/>
<path d="M27.9123 17.7715C27.9843 17.7715 28.0571 17.7619 28.1298 17.7419C28.5554 17.6219 28.8025 17.1796 28.6825 16.7549C27.7387 13.4092 25.0761 10.7409 21.7328 9.78914C21.3081 9.66676 20.8658 9.91551 20.745 10.3402C20.6242 10.7649 20.8706 11.2072 21.2953 11.328C24.1083 12.1278 26.3486 14.3746 27.1428 17.1892C27.2428 17.5411 27.5628 17.7715 27.9123 17.7715Z" fill="white"/>
<path d="M21.3881 6.06434C20.9626 5.94197 20.5202 6.18911 20.3995 6.61542C20.2787 7.04013 20.525 7.48244 20.9498 7.60322C25.716 8.95893 29.5128 12.7645 30.8581 17.5339C30.9573 17.8859 31.278 18.117 31.6275 18.117C31.6995 18.117 31.7723 18.1074 31.8451 18.0874C32.2698 17.9674 32.5177 17.5251 32.3978 17.1004C30.9029 11.7999 26.6846 7.57202 21.3881 6.06434Z" fill="white"/>
</svg>
