<svg width="40" height="40" viewBox="0 0 40 40" fill="none" xmlns="http://www.w3.org/2000/svg">
<path d="M20 0C8.97154 0 0 8.97154 0 20C0 23.7623 1.04538 27.4146 3.02846 30.5862C2.23846 33.3538 0.811538 38.5892 0.796154 38.6438C0.722308 38.9146 0.801538 39.2038 1.00385 39.3985C1.20615 39.5931 1.49846 39.6623 1.76462 39.5808L9.69231 37.1423C12.7977 39.0131 16.3538 40 20 40C31.0285 40 40 31.0285 40 20C40 8.97154 31.0285 0 20 0ZM20 38.4615C16.5238 38.4615 13.1377 37.49 10.2069 35.6531C10.0831 35.5754 9.94077 35.5362 9.79846 35.5362C9.72231 35.5362 9.64615 35.5477 9.57231 35.57L2.65 37.7008C3.15846 35.8446 4.07231 32.5246 4.60231 30.6777C4.66385 30.4638 4.62923 30.2331 4.50846 30.0462C2.56538 27.0562 1.53846 23.5823 1.53846 20C1.53846 9.82077 9.82077 1.53846 20 1.53846C30.1792 1.53846 38.4615 9.82077 38.4615 20C38.4615 30.1792 30.1792 38.4615 20 38.4615Z" fill="white"/>
<path d="M33.0654 24.7123C31.6454 23.9239 30.4361 23.1331 29.5538 22.5562C28.88 22.1162 28.3931 21.7985 28.0361 21.6192C27.0385 21.1216 26.2823 21.4731 25.9946 21.7639C25.9585 21.8 25.9261 21.8392 25.8985 21.8808C24.8623 23.4354 23.5092 24.9223 23.1131 25.0023C22.6554 24.9308 20.5131 23.7131 18.3838 21.94C16.21 20.1285 14.8423 18.3939 14.6415 17.2123C16.0361 15.7769 16.5385 14.8739 16.5385 13.8462C16.5385 12.7869 14.0677 8.36464 13.6208 7.91771C13.1723 7.47002 12.1623 7.40002 10.6185 7.70771C10.47 7.73771 10.3331 7.81079 10.2254 7.91771C10.0385 8.10464 5.66461 12.5639 7.74307 17.9685C10.0246 23.9 15.8808 30.7946 23.3469 31.9146C24.1954 32.0415 24.9908 32.1046 25.7354 32.1046C30.1277 32.1046 32.72 29.8946 33.45 25.5108C33.5046 25.19 33.35 24.87 33.0654 24.7123ZM23.5754 30.3931C15.68 29.2092 10.7069 21.3869 9.17923 17.4162C7.66384 13.4777 10.4585 9.96617 11.16 9.17233C11.7308 9.0754 12.3315 9.03464 12.5823 9.07387C13.1061 9.80233 14.92 13.2292 15 13.8462C15 14.25 14.8685 14.8123 13.3023 16.3792C13.1577 16.5231 13.0769 16.7185 13.0769 16.9231C13.0769 20.9508 21.5723 26.5385 23.0769 26.5385C24.3854 26.5385 26.0915 24.3392 27.0631 22.9062C27.1192 22.9085 27.2138 22.9277 27.3485 22.9954C27.6254 23.1346 28.1054 23.4477 28.7123 23.8446C29.5138 24.3685 30.5784 25.0639 31.8354 25.7846C31.2646 28.5308 29.6692 31.3085 23.5754 30.3931Z" fill="white"/>
</svg>
